<svg width="155" height="60" viewBox="0 0 155 60" fill="none" xmlns="http://www.w3.org/2000/svg">
<path d="M27.2031 38H13.3047C13.0859 38 12.8828 37.9609 12.6953 37.8828C12.5078 37.8047 12.3438 37.6992 12.2031 37.5664C12.0703 37.4258 11.9648 37.2617 11.8867 37.0742C11.8086 36.8867 11.7695 36.6836 11.7695 36.4648V21.1953H14.8164V34.9531H27.2031V38ZM42.7305 29.5273C42.7305 29.9492 42.6562 30.4062 42.5078 30.8984C42.3594 31.3828 42.1172 31.8359 41.7812 32.2578C41.4531 32.6719 41.0195 33.0195 40.4805 33.3008C39.9492 33.582 39.3008 33.7227 38.5352 33.7227H33.0391V30.8281H38.5352C38.9492 30.8281 39.2695 30.7031 39.4961 30.4531C39.7227 30.1953 39.8359 29.8789 39.8359 29.5039C39.8359 29.1055 39.707 28.793 39.4492 28.5664C39.1992 28.3398 38.8945 28.2266 38.5352 28.2266H33.0391C32.625 28.2266 32.3047 28.3555 32.0781 28.6133C31.8516 28.8633 31.7383 29.1758 31.7383 29.5508V33.8047C31.7383 34.2109 31.8633 34.5273 32.1133 34.7539C32.3711 34.9805 32.6875 35.0938 33.0625 35.0938H38.5352V38H33.0391C32.6172 38 32.1602 37.9258 31.668 37.7773C31.1836 37.6289 30.7305 37.3906 30.3086 37.0625C29.8945 36.7266 29.5469 36.293 29.2656 35.7617C28.9844 35.2227 28.8438 34.5703 28.8438 33.8047V29.5273C28.8438 29.1055 28.918 28.6523 29.0664 28.168C29.2148 27.6758 29.4531 27.2227 29.7812 26.8086C30.1172 26.3867 30.5508 26.0352 31.082 25.7539C31.6211 25.4727 32.2734 25.332 33.0391 25.332H38.5352C38.957 25.332 39.4102 25.4062 39.8945 25.5547C40.3867 25.7031 40.8398 25.9453 41.2539 26.2812C41.6758 26.6094 42.0273 27.043 42.3086 27.582C42.5898 28.1133 42.7305 28.7617 42.7305 29.5273ZM57.7656 33.8047C57.7656 34.2266 57.6914 34.6836 57.543 35.1758C57.3945 35.6602 57.1523 36.1133 56.8164 36.5352C56.4883 36.9492 56.0547 37.2969 55.5156 37.5781C54.9844 37.8594 54.3359 38 53.5703 38H48.0742C47.6523 38 47.1953 37.9258 46.7031 37.7773C46.2188 37.6289 45.7656 37.3906 45.3438 37.0625C44.9297 36.7266 44.582 36.293 44.3008 35.7617C44.0195 35.2227 43.8789 34.5703 43.8789 33.8047C43.8789 33.3828 43.9531 32.9258 44.1016 32.4336C44.25 31.9414 44.4883 31.4883 44.8164 31.0742C45.1523 30.6523 45.5859 30.3008 46.1172 30.0195C46.6562 29.7383 47.3086 29.5977 48.0742 29.5977H53.5703V32.5039H48.0742C47.6602 32.5039 47.3398 32.6328 47.1133 32.8906C46.8867 33.1406 46.7734 33.4531 46.7734 33.8281C46.7734 34.2266 46.9023 34.5391 47.1602 34.7656C47.4258 34.9844 47.7383 35.0938 48.0977 35.0938H53.5703C53.9844 35.0938 54.3047 34.9688 54.5312 34.7188C54.7578 34.4688 54.8711 34.1562 54.8711 33.7812V29.5273C54.8711 29.1289 54.7461 28.8125 54.4961 28.5781C54.2539 28.3438 53.9453 28.2266 53.5703 28.2266H46.8789V25.332H53.5703C53.9922 25.332 54.4453 25.4062 54.9297 25.5547C55.4219 25.7031 55.875 25.9453 56.2891 26.2812C56.7109 26.6094 57.0625 27.043 57.3438 27.582C57.625 28.1133 57.7656 28.7617 57.7656 29.5273V33.8047ZM74.2656 33.7227C74.2656 34.2461 74.1992 34.7188 74.0664 35.1406C73.9336 35.5547 73.7578 35.9219 73.5391 36.2422C73.3203 36.5547 73.0664 36.8242 72.7773 37.0508C72.4883 37.2695 72.1836 37.4492 71.8633 37.5898C71.5508 37.7305 71.2305 37.8359 70.9023 37.9062C70.582 37.9688 70.2773 38 69.9883 38H64.4922C63.9688 38 63.5 37.9336 63.0859 37.8008C62.6719 37.668 62.3047 37.4922 61.9844 37.2734C61.6719 37.0469 61.4023 36.7891 61.1758 36.5C60.957 36.2109 60.7773 35.9102 60.6367 35.5977C60.4961 35.2773 60.3906 34.957 60.3203 34.6367C60.2578 34.3086 60.2266 34.0039 60.2266 33.7227V29.5977C60.2266 28.8164 60.3672 28.1562 60.6484 27.6172C60.9375 27.0703 61.293 26.6289 61.7148 26.293C62.1445 25.9492 62.6094 25.7031 63.1094 25.5547C63.6094 25.4062 64.0703 25.332 64.4922 25.332H69.9883V28.3789H64.5156C64.1094 28.3789 63.8008 28.4844 63.5898 28.6953C63.3789 28.8984 63.2734 29.1992 63.2734 29.5977V33.6992C63.2734 34.1133 63.375 34.4258 63.5781 34.6367C63.7891 34.8477 64.0938 34.9531 64.4922 34.9531H69.9883C70.4023 34.9531 70.7109 34.8477 70.9141 34.6367C71.1172 34.4258 71.2188 34.1211 71.2188 33.7227V19.9766H74.2656V33.7227ZM102.086 30.9688C102.086 31.9922 101.906 32.9336 101.547 33.793C101.195 34.6523 100.707 35.3945 100.082 36.0195C99.457 36.6367 98.7148 37.1211 97.8555 37.4727C96.9961 37.8242 96.0625 38 95.0547 38H86.8281C86.6094 38 86.4062 37.9609 86.2188 37.8828C86.0312 37.8047 85.8672 37.6992 85.7266 37.5664C85.5938 37.4258 85.4883 37.2617 85.4102 37.0742C85.332 36.8867 85.293 36.6836 85.293 36.4648V22.7305C85.293 22.5195 85.332 22.3203 85.4102 22.1328C85.4883 21.9453 85.5938 21.7812 85.7266 21.6406C85.8672 21.5 86.0312 21.3906 86.2188 21.3125C86.4062 21.2344 86.6094 21.1953 86.8281 21.1953H95.0547C96.0625 21.1953 96.9961 21.3711 97.8555 21.7227C98.7148 22.0742 99.457 22.5625 100.082 23.1875C100.707 23.8047 101.195 24.5469 101.547 25.4141C101.906 26.2734 102.086 27.2109 102.086 28.2266V30.9688ZM99.0391 28.2266C99.0391 27.6328 98.9414 27.0898 98.7461 26.5977C98.5586 26.1055 98.2891 25.6875 97.9375 25.3438C97.5859 24.9922 97.1641 24.7227 96.6719 24.5352C96.1875 24.3398 95.6484 24.2422 95.0547 24.2422H88.3398V34.9531H95.0547C95.6484 34.9531 96.1875 34.8594 96.6719 34.6719C97.1641 34.4766 97.5859 34.207 97.9375 33.8633C98.2891 33.5117 98.5586 33.0938 98.7461 32.6094C98.9414 32.1172 99.0391 31.5703 99.0391 30.9688V28.2266ZM118.363 29.5273C118.363 29.9492 118.289 30.4062 118.141 30.8984C117.992 31.3828 117.75 31.8359 117.414 32.2578C117.086 32.6719 116.652 33.0195 116.113 33.3008C115.582 33.582 114.934 33.7227 114.168 33.7227H108.672V30.8281H114.168C114.582 30.8281 114.902 30.7031 115.129 30.4531C115.355 30.1953 115.469 29.8789 115.469 29.5039C115.469 29.1055 115.34 28.793 115.082 28.5664C114.832 28.3398 114.527 28.2266 114.168 28.2266H108.672C108.258 28.2266 107.938 28.3555 107.711 28.6133C107.484 28.8633 107.371 29.1758 107.371 29.5508V33.8047C107.371 34.2109 107.496 34.5273 107.746 34.7539C108.004 34.9805 108.32 35.0938 108.695 35.0938H114.168V38H108.672C108.25 38 107.793 37.9258 107.301 37.7773C106.816 37.6289 106.363 37.3906 105.941 37.0625C105.527 36.7266 105.18 36.293 104.898 35.7617C104.617 35.2227 104.477 34.5703 104.477 33.8047V29.5273C104.477 29.1055 104.551 28.6523 104.699 28.168C104.848 27.6758 105.086 27.2227 105.414 26.8086C105.75 26.3867 106.184 26.0352 106.715 25.7539C107.254 25.4727 107.906 25.332 108.672 25.332H114.168C114.59 25.332 115.043 25.4062 115.527 25.5547C116.02 25.7031 116.473 25.9453 116.887 26.2812C117.309 26.6094 117.66 27.043 117.941 27.582C118.223 28.1133 118.363 28.7617 118.363 29.5273ZM132.66 33.7227C132.66 34.2461 132.594 34.7188 132.461 35.1406C132.328 35.5547 132.152 35.9219 131.934 36.2422C131.715 36.5547 131.461 36.8242 131.172 37.0508C130.883 37.2695 130.578 37.4492 130.258 37.5898C129.945 37.7305 129.625 37.8359 129.297 37.9062C128.977 37.9688 128.672 38 128.383 38H120.133V34.9531H128.359C128.773 34.9531 129.086 34.8477 129.297 34.6367C129.508 34.4258 129.613 34.1211 129.613 33.7227C129.574 32.9102 129.164 32.5039 128.383 32.5039H123.66C122.988 32.5039 122.418 32.3867 121.949 32.1523C121.48 31.918 121.098 31.625 120.801 31.2734C120.512 30.9219 120.301 30.543 120.168 30.1367C120.043 29.7305 119.98 29.3516 119.98 29C119.98 28.3203 120.102 27.75 120.344 27.2891C120.586 26.8203 120.891 26.4414 121.258 26.1523C121.625 25.8633 122.023 25.6562 122.453 25.5312C122.883 25.3984 123.285 25.332 123.66 25.332H131.148V28.3789H123.684C123.527 28.3789 123.402 28.3984 123.309 28.4375C123.223 28.4688 123.156 28.5156 123.109 28.5781C123.07 28.6328 123.047 28.6953 123.039 28.7656C123.031 28.8281 123.027 28.8906 123.027 28.9531C123.035 29.0781 123.059 29.1758 123.098 29.2461C123.137 29.3164 123.184 29.3672 123.238 29.3984C123.301 29.4297 123.367 29.4492 123.438 29.457C123.516 29.457 123.59 29.457 123.66 29.457H128.383C129.164 29.457 129.828 29.5977 130.375 29.8789C130.922 30.1602 131.363 30.5156 131.699 30.9453C132.035 31.3672 132.277 31.8281 132.426 32.3281C132.582 32.8281 132.66 33.293 132.66 33.7227ZM149.688 38H145.293L139.152 32.0703C138.809 31.7578 138.648 31.3672 138.672 30.8984C138.688 30.6797 138.742 30.4766 138.836 30.2891C138.938 30.0938 139.074 29.9297 139.246 29.7969L144.812 25.3086H149.688L142.516 31.0859L149.688 38ZM137.898 38H134.852V19.9766H137.898V38Z" fill="black"/>
</svg>
