<svg width="60" height="60" viewBox="0 0 60 60" fill="none" xmlns="http://www.w3.org/2000/svg">
<rect width="60" height="60" rx="10" fill="#1574CB"/>
<path d="M26.1836 31.9883H14.959V28.4062H26.1836V31.9883ZM27.7832 40H14.959C14.4668 40 13.929 39.9134 13.3457 39.7402C12.7624 39.5671 12.2201 39.2845 11.7188 38.8926C11.2266 38.4915 10.8118 37.9766 10.4746 37.3477C10.1465 36.7096 9.98242 35.9303 9.98242 35.0098V22.1855C9.98242 21.9395 10.028 21.707 10.1191 21.4883C10.2103 21.2695 10.3333 21.0781 10.4883 20.9141C10.6523 20.75 10.8438 20.6224 11.0625 20.5312C11.2812 20.4401 11.5182 20.3945 11.7734 20.3945H27.7832V23.9492H13.5371V35.0098C13.5371 35.4746 13.6602 35.8301 13.9062 36.0762C14.1523 36.3223 14.5124 36.4453 14.9863 36.4453H27.7832V40ZM50.8477 20.3945L41.5645 39.3027C41.4186 39.5944 41.1999 39.8268 40.9082 40C40.6257 40.1823 40.3112 40.2734 39.9648 40.2734C39.6276 40.2734 39.3132 40.1823 39.0215 40C38.7389 39.8268 38.5202 39.5944 38.3652 39.3027L29.0957 20.3945H33.0742L39.9648 34.5176L46.8828 20.3945H50.8477Z" fill="white"/>
</svg>
